<svg width="194" height="54" viewBox="0 0 194 54" fill="none" xmlns="http://www.w3.org/2000/svg">
<path d="M1.386 49V33.6H4.422L12.078 43.544V33.6H15.07V49H12.254L4.4 38.704V49H1.386ZM23.2545 49.22C22.1105 49.22 21.0765 48.956 20.1525 48.428C19.2285 47.9 18.4952 47.1887 17.9525 46.294C17.4098 45.3993 17.1385 44.3947 17.1385 43.28C17.1385 42.1653 17.4025 41.1607 17.9305 40.266C18.4732 39.3567 19.2065 38.638 20.1305 38.11C21.0692 37.582 22.1105 37.318 23.2545 37.318C24.3985 37.318 25.4325 37.582 26.3565 38.11C27.2952 38.638 28.0285 39.3567 28.5565 40.266C29.0992 41.1607 29.3705 42.1653 29.3705 43.28C29.3705 44.3947 29.0992 45.3993 28.5565 46.294C28.0285 47.1887 27.3025 47.9 26.3785 48.428C25.4545 48.956 24.4132 49.22 23.2545 49.22ZM23.2545 46.602C23.8558 46.602 24.3912 46.4553 24.8605 46.162C25.3445 45.8687 25.7258 45.4727 26.0045 44.974C26.2978 44.4607 26.4445 43.896 26.4445 43.28C26.4445 42.6493 26.2978 42.0847 26.0045 41.586C25.7258 41.0873 25.3445 40.6913 24.8605 40.398C24.3912 40.09 23.8558 39.936 23.2545 39.936C22.6678 39.936 22.1325 40.09 21.6485 40.398C21.1645 40.6913 20.7832 41.0873 20.5045 41.586C20.2258 42.0847 20.0865 42.6493 20.0865 43.28C20.0865 43.896 20.2258 44.4607 20.5045 44.974C20.7832 45.4727 21.1645 45.8687 21.6485 46.162C22.1325 46.4553 22.6678 46.602 23.2545 46.602ZM35.6672 49.22C34.7872 49.22 34.0025 49.0293 33.3132 48.648C32.6385 48.252 32.1032 47.7093 31.7072 47.02C31.3258 46.3307 31.1352 45.5387 31.1352 44.644V37.538H34.1492V44.204C34.1492 44.9373 34.3618 45.524 34.7872 45.964C35.2272 46.404 35.8138 46.624 36.5472 46.624C37.0458 46.624 37.4932 46.5287 37.8892 46.338C38.2998 46.1327 38.6372 45.8467 38.9012 45.48V37.538H41.9152V49H38.9012V48.076C38.0212 48.8387 36.9432 49.22 35.6672 49.22ZM44.2642 49V37.538H47.2782V38.484C48.1435 37.7067 49.2142 37.318 50.4902 37.318C51.3848 37.318 52.1695 37.516 52.8442 37.912C53.5335 38.2933 54.0688 38.8287 54.4502 39.518C54.8315 40.1927 55.0222 40.9847 55.0222 41.894V49H52.0082V42.334C52.0082 41.586 51.7955 40.9993 51.3702 40.574C50.9448 40.134 50.3655 39.914 49.6322 39.914C49.1188 39.914 48.6642 40.0167 48.2682 40.222C47.8722 40.4127 47.5422 40.6913 47.2782 41.058V49H44.2642ZM62.8932 49.22C61.7492 49.22 60.7152 48.956 59.7912 48.428C58.8672 47.9 58.1339 47.1887 57.5912 46.294C57.0485 45.3993 56.7772 44.3947 56.7772 43.28C56.7772 42.1653 57.0412 41.1607 57.5692 40.266C58.1119 39.3567 58.8452 38.638 59.7692 38.11C60.7079 37.582 61.7492 37.318 62.8932 37.318C64.0372 37.318 65.0712 37.582 65.9952 38.11C66.9339 38.638 67.6672 39.3567 68.1952 40.266C68.7379 41.1607 69.0092 42.1653 69.0092 43.28C69.0092 44.3947 68.7379 45.3993 68.1952 46.294C67.6672 47.1887 66.9412 47.9 66.0172 48.428C65.0932 48.956 64.0519 49.22 62.8932 49.22ZM62.8932 46.602C63.4945 46.602 64.0299 46.4553 64.4992 46.162C64.9832 45.8687 65.3645 45.4727 65.6432 44.974C65.9365 44.4607 66.0832 43.896 66.0832 43.28C66.0832 42.6493 65.9365 42.0847 65.6432 41.586C65.3645 41.0873 64.9832 40.6913 64.4992 40.398C64.0299 40.09 63.4945 39.936 62.8932 39.936C62.3065 39.936 61.7712 40.09 61.2872 40.398C60.8032 40.6913 60.4219 41.0873 60.1432 41.586C59.8645 42.0847 59.7252 42.6493 59.7252 43.28C59.7252 43.896 59.8645 44.4607 60.1432 44.974C60.4219 45.4727 60.8032 45.8687 61.2872 46.162C61.7712 46.4553 62.3065 46.602 62.8932 46.602ZM75.3058 49.22C74.4258 49.22 73.6412 49.0293 72.9518 48.648C72.2772 48.252 71.7418 47.7093 71.3458 47.02C70.9645 46.3307 70.7738 45.5387 70.7738 44.644V37.538H73.7878V44.204C73.7878 44.9373 74.0005 45.524 74.4258 45.964C74.8658 46.404 75.4525 46.624 76.1858 46.624C76.6845 46.624 77.1318 46.5287 77.5278 46.338C77.9385 46.1327 78.2758 45.8467 78.5398 45.48V37.538H81.5538V49H78.5398V48.076C77.6598 48.8387 76.5818 49.22 75.3058 49.22ZM84.1008 49V33.6H87.2908V46.184H95.7168V49H84.1008ZM97.7173 49V37.538H100.731V49H97.7173ZM99.2133 36.174C98.744 36.174 98.3406 36.0053 98.0033 35.668C97.666 35.3307 97.4973 34.9273 97.4973 34.458C97.4973 33.974 97.666 33.5707 98.0033 33.248C98.3406 32.9107 98.744 32.742 99.2133 32.742C99.6973 32.742 100.101 32.9107 100.423 33.248C100.761 33.5707 100.929 33.974 100.929 34.458C100.929 34.9273 100.761 35.3307 100.423 35.668C100.101 36.0053 99.6973 36.174 99.2133 36.174ZM103.088 49V37.538H106.102V38.484C106.968 37.7067 108.038 37.318 109.314 37.318C110.209 37.318 110.994 37.516 111.668 37.912C112.358 38.2933 112.893 38.8287 113.274 39.518C113.656 40.1927 113.846 40.9847 113.846 41.894V49H110.832V42.334C110.832 41.586 110.62 40.9993 110.194 40.574C109.769 40.134 109.19 39.914 108.456 39.914C107.943 39.914 107.488 40.0167 107.092 40.222C106.696 40.4127 106.366 40.6913 106.102 41.058V49H103.088ZM116.129 49V33.6L119.143 33.094V42.356L124.093 37.538H127.503L122.091 42.796L127.833 49H123.983L119.143 43.764V49H116.129Z" fill="#ffff"/>
<rect x="144.5" y="31.6481" width="49" height="19" rx="9.5" stroke="#ffff"/>
<path d="M156.756 46.1481V37.7481H160.968C161.52 37.7481 162.004 37.8601 162.42 38.0841C162.844 38.3081 163.176 38.6201 163.416 39.0201C163.656 39.4121 163.776 39.8681 163.776 40.3881C163.776 40.8841 163.656 41.3281 163.416 41.7201C163.176 42.1121 162.844 42.4201 162.42 42.6441C161.996 42.8681 161.512 42.9801 160.968 42.9801H158.496V46.1481H156.756ZM158.496 41.5401H160.776C161.152 41.5401 161.452 41.4361 161.676 41.2281C161.908 41.0201 162.024 40.7441 162.024 40.4001C162.024 40.0481 161.908 39.7681 161.676 39.5601C161.452 39.3521 161.152 39.2481 160.776 39.2481H158.496V41.5401ZM164.924 46.1481V37.7481H169.028C169.596 37.7481 170.096 37.8601 170.528 38.0841C170.968 38.3001 171.308 38.6041 171.548 38.9961C171.796 39.3881 171.92 39.8401 171.92 40.3521C171.92 40.8881 171.772 41.3601 171.476 41.7681C171.18 42.1761 170.784 42.4801 170.288 42.6801L172.148 46.1481H170.204L168.56 42.9321H166.664V46.1481H164.924ZM166.664 41.5041H168.872C169.264 41.5041 169.576 41.4001 169.808 41.1921C170.048 40.9841 170.168 40.7121 170.168 40.3761C170.168 40.0401 170.048 39.7681 169.808 39.5601C169.576 39.3521 169.264 39.2481 168.872 39.2481H166.664V41.5041ZM177.185 46.2801C176.561 46.2801 175.981 46.1721 175.445 45.9561C174.909 45.7321 174.437 45.4241 174.029 45.0321C173.629 44.6321 173.313 44.1721 173.081 43.6521C172.857 43.1241 172.745 42.5561 172.745 41.9481C172.745 41.3401 172.857 40.7761 173.081 40.2561C173.313 39.7281 173.629 39.2681 174.029 38.8761C174.437 38.4761 174.909 38.1681 175.445 37.9521C175.981 37.7281 176.561 37.6161 177.185 37.6161C177.809 37.6161 178.389 37.7281 178.924 37.9521C179.469 38.1681 179.941 38.4761 180.341 38.8761C180.749 39.2681 181.065 39.7281 181.289 40.2561C181.513 40.7761 181.625 41.3401 181.625 41.9481C181.625 42.5561 181.513 43.1241 181.289 43.6521C181.065 44.1721 180.749 44.6321 180.341 45.0321C179.941 45.4241 179.469 45.7321 178.924 45.9561C178.389 46.1721 177.809 46.2801 177.185 46.2801ZM177.185 44.6841C177.569 44.6841 177.921 44.6161 178.241 44.4801C178.561 44.3361 178.841 44.1441 179.081 43.9041C179.321 43.6561 179.509 43.3641 179.645 43.0281C179.781 42.6921 179.849 42.3321 179.849 41.9481C179.849 41.5561 179.781 41.1961 179.645 40.8681C179.509 40.5321 179.321 40.2441 179.081 40.0041C178.841 39.7561 178.561 39.5641 178.241 39.4281C177.921 39.2841 177.569 39.2121 177.185 39.2121C176.809 39.2121 176.461 39.2841 176.141 39.4281C175.821 39.5641 175.541 39.7561 175.301 40.0041C175.061 40.2441 174.873 40.5321 174.737 40.8681C174.601 41.1961 174.533 41.5521 174.533 41.9361C174.533 42.3281 174.601 42.6921 174.737 43.0281C174.873 43.3641 175.061 43.6561 175.301 43.9041C175.541 44.1441 175.821 44.3361 176.141 44.4801C176.461 44.6161 176.809 44.6841 177.185 44.6841Z" fill="#ffff"/>
<path d="M63.4578 4.07725C62.9691 3.55674 62.3889 3.14384 61.7503 2.86213C61.1117 2.58042 60.4272 2.43542 59.7359 2.43542C59.0446 2.43542 58.3601 2.58042 57.7215 2.86213C57.0829 3.14384 56.5026 3.55674 56.0139 4.07725L54.9997 5.15698L53.9855 4.07725C52.9984 3.02636 51.6596 2.43597 50.2636 2.43597C48.8676 2.43597 47.5288 3.02636 46.5417 4.07725C45.5546 5.12814 45 6.55346 45 8.03964C45 9.52583 45.5546 10.9511 46.5417 12.002L47.5559 13.0818L54.9997 21.0066L62.4436 13.0818L63.4578 12.002C63.9467 11.4818 64.3346 10.8641 64.5992 10.1842C64.8638 9.5043 65 8.77558 65 8.03964C65 7.30371 64.8638 6.57499 64.5992 5.89511C64.3346 5.21522 63.9467 4.59751 63.4578 4.07725Z" stroke="#fffff" stroke-width="3" stroke-linecap="round" stroke-linejoin="round"/>
<path d="M63.4578 10.8537C62.9691 10.3332 62.3889 9.92033 61.7503 9.63862C61.1117 9.35691 60.4272 9.21191 59.7359 9.21191C59.0446 9.21191 58.3601 9.35691 57.7215 9.63862C57.0829 9.92033 56.5026 10.3332 56.0139 10.8537L54.9997 11.9335L53.9855 10.8537C52.9984 9.80284 51.6596 9.21246 50.2636 9.21246C48.8676 9.21246 47.5288 9.80284 46.5417 10.8537C45.5546 11.9046 45 13.3299 45 14.8161C45 16.3023 45.5546 17.7276 46.5417 18.7785L47.5559 19.8583L54.9997 27.783L62.4436 19.8583L63.4578 18.7785C63.9467 18.2583 64.3346 17.6406 64.5992 16.9607C64.8638 16.2808 65 15.5521 65 14.8161C65 14.0802 64.8638 13.3515 64.5992 12.6716C64.3346 11.9917 63.9467 11.374 63.4578 10.8537Z" stroke="#fffff" stroke-width="3" stroke-linecap="round" stroke-linejoin="round"/>
</svg>