<svg width="18" height="18" viewBox="0 0 18 18" fill="none" xmlns="http://www.w3.org/2000/svg">
<path fill-rule="evenodd" clip-rule="evenodd" d="M12.4738 2.25H15.4088C15.814 2.25 16.1425 2.58579 16.1425 3V15C16.1425 15.4142 15.814 15.75 15.4088 15.75H2.20128C1.79604 15.75 1.46753 15.4142 1.46753 15V3C1.46753 2.58579 1.79604 2.25 2.20128 2.25H5.13628V0.75H6.60378V2.25H11.0063V0.75H12.4738V2.25ZM14.675 8.25H2.93503V14.25H14.675V8.25ZM11.0063 3.75H6.60378V5.25H5.13628V3.75H2.93503V6.75H14.675V3.75H12.4738V5.25H11.0063V3.75ZM4.40253 9.75H5.87003V11.25H4.40253V9.75ZM8.07128 9.75H9.53878V11.25H8.07128V9.75ZM11.74 9.75H13.2075V11.25H11.74V9.75Z" fill="white"/>
</svg>
