<svg width="16" height="20" viewBox="0 0 16 20" fill="none" xmlns="http://www.w3.org/2000/svg">
<path fill-rule="evenodd" clip-rule="evenodd" d="M9.75 1H2.75C1.7835 1 1 1.78756 1 2.75907V16.8316C1 17.8031 1.7835 18.5907 2.75 18.5907H13.25C14.2165 18.5907 15 17.8031 15 16.8316V6.2772L9.75 1Z" stroke="url(#paint0_linear_1111_487)" stroke-width="2" stroke-linecap="round" stroke-linejoin="round"/>
<path d="M9.75 1V6.2772H15" stroke="url(#paint1_linear_1111_487)" stroke-width="2" stroke-linecap="round" stroke-linejoin="round"/>
<path d="M11.5 10.6749H4.5" stroke="url(#paint2_linear_1111_487)" stroke-width="2" stroke-linecap="round" stroke-linejoin="round"/>
<path d="M11.5 14.193H4.5" stroke="url(#paint3_linear_1111_487)" stroke-width="2" stroke-linecap="round" stroke-linejoin="round"/>
<path d="M6.25 7.15673H5.375H4.5" stroke="url(#paint4_linear_1111_487)" stroke-width="2" stroke-linecap="round" stroke-linejoin="round"/>
<defs>
<linearGradient id="paint0_linear_1111_487" x1="1.44366" y1="1.36438" x2="14.6056" y2="18.6227" gradientUnits="userSpaceOnUse">
<stop stop-color="#474FFF" stop-opacity="0.9"/>
<stop offset="0.112374" stop-color="#5954F9" stop-opacity="0.911237"/>
<stop offset="1" stop-color="#E37ACC"/>
</linearGradient>
<linearGradient id="paint1_linear_1111_487" x1="9.91637" y1="1.10931" x2="13.5572" y2="7.07684" gradientUnits="userSpaceOnUse">
<stop stop-color="#474FFF" stop-opacity="0.9"/>
<stop offset="0.112374" stop-color="#5954F9" stop-opacity="0.911237"/>
<stop offset="1" stop-color="#E37ACC"/>
</linearGradient>
<linearGradient id="paint2_linear_1111_487" x1="4.72183" y1="10.2533" x2="4.82532" y2="11.6102" gradientUnits="userSpaceOnUse">
<stop stop-color="#474FFF" stop-opacity="0.9"/>
<stop offset="0.112374" stop-color="#5954F9" stop-opacity="0.911237"/>
<stop offset="1" stop-color="#E37ACC"/>
</linearGradient>
<linearGradient id="paint3_linear_1111_487" x1="4.72183" y1="13.7715" x2="4.82532" y2="15.1284" gradientUnits="userSpaceOnUse">
<stop stop-color="#474FFF" stop-opacity="0.9"/>
<stop offset="0.112374" stop-color="#5954F9" stop-opacity="0.911237"/>
<stop offset="1" stop-color="#E37ACC"/>
</linearGradient>
<linearGradient id="paint4_linear_1111_487" x1="4.55546" y1="6.73518" x2="4.93636" y2="7.9838" gradientUnits="userSpaceOnUse">
<stop stop-color="#474FFF" stop-opacity="0.9"/>
<stop offset="0.112374" stop-color="#5954F9" stop-opacity="0.911237"/>
<stop offset="1" stop-color="#E37ACC"/>
</linearGradient>
</defs>
</svg>
