<svg width="20" height="20" viewBox="0 0 20 20" fill="none" xmlns="http://www.w3.org/2000/svg">
<path fill-rule="evenodd" clip-rule="evenodd" d="M1.79154 0.938246C4.46066 0.485617 7.20314 0.25 10.0001 0.25C12.7969 0.25 15.5394 0.485609 18.2085 0.938222C19.1108 1.09125 19.75 1.87676 19.75 2.77402V3.81802C19.75 4.61367 19.4339 5.37673 18.8713 5.93934L12.6893 12.1213C12.408 12.4026 12.25 12.7842 12.25 13.182V16.1094C12.25 17.2457 11.608 18.2845 10.5916 18.7927L8.83541 19.6708C8.60292 19.7871 8.32681 19.7746 8.1057 19.638C7.88459 19.5013 7.75 19.2599 7.75 19V13.182C7.75 12.7842 7.59196 12.4026 7.31066 12.1213L1.12868 5.93934C0.56607 5.37673 0.25 4.61367 0.25 3.81802V2.77404C0.25 1.87678 0.889169 1.09127 1.79154 0.938246Z" fill="#DFDEDE"/>
</svg>
