<svg width="18" height="18" viewBox="0 0 18 18" fill="none" xmlns="http://www.w3.org/2000/svg">
<path fill-rule="evenodd" clip-rule="evenodd" d="M8.80504 15.6749L12.4371 11.9624C14.4428 9.91212 14.4427 6.5881 12.4369 4.53793C10.431 2.48776 7.17905 2.48776 5.17323 4.53793C3.16741 6.5881 3.1673 9.91212 5.17298 11.9624L8.80504 15.6749ZM8.80504 17.7959L4.13546 13.0229C1.55656 10.3869 1.55657 6.11304 4.1355 3.47702C6.71442 0.840994 10.8957 0.840994 13.4746 3.47702C16.0535 6.11304 16.0535 10.3869 13.4746 13.0229L8.80504 17.7959ZM8.80505 9.74994C9.61552 9.74994 10.2725 9.07837 10.2725 8.24994C10.2725 7.42151 9.61552 6.74994 8.80505 6.74994C7.99457 6.74994 7.33755 7.42151 7.33755 8.24994C7.33755 9.07837 7.99457 9.74994 8.80505 9.74994ZM8.80505 11.2499C7.18409 11.2499 5.87004 9.90679 5.87004 8.24994C5.87004 6.59308 7.18409 5.24994 8.80505 5.24994C10.426 5.24994 11.74 6.59308 11.74 8.24994C11.74 9.90679 10.426 11.2499 8.80505 11.2499Z" fill="white"/>
</svg>
