<svg width="41" height="34" viewBox="0 0 41 34" fill="none" xmlns="http://www.w3.org/2000/svg">
<path d="M35.3012 5.66328C34.446 4.8766 33.4306 4.25256 32.313 3.82679C31.1954 3.40103 29.9975 3.18188 28.7878 3.18188C27.5781 3.18188 26.3802 3.40103 25.2626 3.82679C24.145 4.25256 23.1296 4.8766 22.2744 5.66328L20.4996 7.29514L18.7247 5.66328C16.9972 4.075 14.6543 3.18271 12.2113 3.18271C9.76832 3.18271 7.42539 4.075 5.69793 5.66328C3.97048 7.25156 3 9.40573 3 11.6519C3 13.8981 3.97048 16.0522 5.69793 17.6405L7.47279 19.2724L20.4996 31.2496L33.5263 19.2724L35.3012 17.6405C36.1568 16.8542 36.8355 15.9206 37.2986 14.8931C37.7617 13.8655 38 12.7642 38 11.6519C38 10.5396 37.7617 9.43827 37.2986 8.41072C36.8355 7.38317 36.1568 6.44958 35.3012 5.66328Z" stroke="white" stroke-width="5" stroke-linecap="round" stroke-linejoin="round"/>
</svg>
