<svg width="42" height="46" viewBox="0 0 42 46" fill="none" xmlns="http://www.w3.org/2000/svg">
<path d="M36.3012 5.66328C35.446 4.8766 34.4306 4.25256 33.313 3.82679C32.1954 3.40103 30.9975 3.18188 29.7878 3.18188C28.5781 3.18188 27.3802 3.40103 26.2626 3.82679C25.145 4.25256 24.1296 4.8766 23.2744 5.66328L21.4996 7.29514L19.7247 5.66328C17.9972 4.075 15.6543 3.18271 13.2113 3.18271C10.7683 3.18271 8.42539 4.075 6.69793 5.66328C4.97048 7.25156 4 9.40573 4 11.6519C4 13.8981 4.97048 16.0522 6.69793 17.6405L8.47279 19.2724L21.4996 31.2496L34.5263 19.2724L36.3012 17.6405C37.1568 16.8542 37.8355 15.9206 38.2986 14.8931C38.7617 13.8655 39 12.7642 39 11.6519C39 10.5396 38.7617 9.43827 38.2986 8.41072C37.8355 7.38317 37.1568 6.44958 36.3012 5.66328Z" stroke="white" stroke-width="5" stroke-linecap="round" stroke-linejoin="round"/>
<path d="M35.3012 17.7541C34.446 16.9674 33.4306 16.3434 32.313 15.9176C31.1954 15.4918 29.9975 15.2727 28.7878 15.2727C27.5781 15.2727 26.3802 15.4918 25.2626 15.9176C24.145 16.3434 23.1296 16.9674 22.2744 17.7541L20.4996 19.386L18.7247 17.7541C16.9972 16.1658 14.6543 15.2735 12.2113 15.2735C9.76832 15.2735 7.42539 16.1658 5.69793 17.7541C3.97048 19.3424 3 21.4965 3 23.7427C3 25.9889 3.97048 28.1431 5.69793 29.7313L7.47279 31.3632L20.4996 43.3404L33.5263 31.3632L35.3012 29.7313C36.1568 28.945 36.8355 28.0114 37.2986 26.9839C37.7617 25.9563 38 24.855 38 23.7427C38 22.6305 37.7617 21.5291 37.2986 20.5015C36.8355 19.474 36.1568 18.5404 35.3012 17.7541Z" stroke="white" stroke-width="5" stroke-linecap="round" stroke-linejoin="round"/>
</svg>
