<svg width="20" height="21" viewBox="0 0 20 21" fill="none" xmlns="http://www.w3.org/2000/svg">
<path d="M9.6875 0.423462C11.4062 0.423462 13.0469 0.900181 14.5312 1.77417C16.0156 2.64815 17.1875 3.83995 18.0469 5.34956C18.9062 6.85917 19.375 8.52769 19.375 10.2757C19.375 12.0634 18.9062 13.6922 18.0469 15.2018C17.1875 16.7114 16.0156 17.9429 14.5312 18.8169C13.0469 19.6909 11.4062 20.1279 9.6875 20.1279C7.92969 20.1279 6.32812 19.6909 4.84375 18.8169C3.35938 17.9429 2.14844 16.7114 1.28906 15.2018C0.429688 13.6922 0 12.0634 0 10.2757C0 8.52769 0.429688 6.85917 1.28906 5.34956C2.14844 3.83995 3.35938 2.64815 4.84375 1.77417C6.32812 0.900181 7.92969 0.423462 9.6875 0.423462ZM9.6875 4.79339C9.21875 4.79339 8.82812 4.99202 8.51562 5.30984C8.20312 5.62765 8.04688 6.02492 8.04688 6.46191C8.04688 6.93863 8.20312 7.33589 8.51562 7.65371C8.82812 7.97152 9.21875 8.13043 9.6875 8.13043C10.1172 8.13043 10.5078 7.97152 10.8203 7.65371C11.1328 7.33589 11.3281 6.93863 11.3281 6.46191C11.3281 6.02492 11.1328 5.62765 10.8203 5.30984C10.5078 4.99202 10.1172 4.79339 9.6875 4.79339ZM11.875 14.884V13.9305C11.875 13.8113 11.7969 13.6922 11.7188 13.6127C11.6406 13.5332 11.5234 13.4538 11.4062 13.4538H10.9375V9.48113C10.9375 9.36195 10.8594 9.24277 10.7812 9.16332C10.7031 9.08387 10.5859 9.00441 10.4688 9.00441H7.96875C7.8125 9.00441 7.69531 9.08387 7.61719 9.16332C7.53906 9.24277 7.5 9.36195 7.5 9.48113V10.4346C7.5 10.5935 7.53906 10.7127 7.61719 10.7921C7.69531 10.8716 7.8125 10.9113 7.96875 10.9113H8.4375V13.4538H7.96875C7.8125 13.4538 7.69531 13.5332 7.61719 13.6127C7.53906 13.6922 7.5 13.8113 7.5 13.9305V14.884C7.5 15.0429 7.53906 15.162 7.61719 15.2415C7.69531 15.3209 7.8125 15.3607 7.96875 15.3607H11.4062C11.5234 15.3607 11.6406 15.3209 11.7188 15.2415C11.7969 15.162 11.875 15.0429 11.875 14.884Z" fill="#882BFF"/>
</svg>
