<svg width="24" height="24" viewBox="0 0 24 24" fill="none" xmlns="http://www.w3.org/2000/svg">
<path d="M23.6719 20.7656C23.8594 21 24 21.2812 24 21.5625C24 21.8906 23.8594 22.1719 23.6719 22.3594L22.3594 23.6719C22.125 23.9062 21.8438 24 21.5625 24C21.2344 24 20.9531 23.9062 20.7656 23.6719L16.0781 18.9844C15.8438 18.7969 15.75 18.5156 15.75 18.1875V17.4375C13.9688 18.8438 12 19.5 9.75 19.5C7.96875 19.5 6.32812 19.0781 4.82812 18.1875C3.32812 17.3438 2.15625 16.1719 1.3125 14.6719C0.421875 13.1719 0 11.5312 0 9.75C0 7.96875 0.421875 6.375 1.3125 4.875C2.15625 3.375 3.32812 2.20312 4.82812 1.3125C6.32812 0.46875 7.96875 0 9.75 0C11.5312 0 13.125 0.46875 14.625 1.3125C16.125 2.20312 17.2969 3.375 18.1875 4.875C19.0312 6.375 19.5 7.96875 19.5 9.75C19.5 12 18.7969 14.0156 17.4375 15.75H18.1875C18.4688 15.75 18.75 15.8906 18.9844 16.0781L23.6719 20.7656ZM9.75 15.75C10.8281 15.75 11.8125 15.5156 12.75 14.9531C13.6875 14.4375 14.3906 13.7344 14.9531 12.7969C15.4688 11.8594 15.75 10.875 15.75 9.75C15.75 8.67188 15.4688 7.6875 14.9531 6.75C14.3906 5.8125 13.6875 5.10938 12.75 4.54688C11.8125 4.03125 10.8281 3.75 9.75 3.75C8.625 3.75 7.64062 4.03125 6.70312 4.54688C5.76562 5.10938 5.0625 5.8125 4.54688 6.75C3.98438 7.6875 3.75 8.67188 3.75 9.75C3.75 10.875 3.98438 11.8594 4.54688 12.7969C5.0625 13.7344 5.76562 14.4375 6.70312 14.9531C7.64062 15.5156 8.625 15.75 9.75 15.75Z" fill="#DFDEDE"/>
</svg>
