<svg width="14" height="13" viewBox="0 0 14 13" fill="none" xmlns="http://www.w3.org/2000/svg">
<path d="M6.57031 0.921875C6.66406 0.734375 6.78125 0.617188 6.96875 0.546875C7.15625 0.5 7.32031 0.5 7.50781 0.546875C7.69531 0.617188 7.83594 0.734375 7.92969 0.921875L9.45312 4.01562L12.875 4.50781C13.0625 4.55469 13.2266 4.64844 13.3438 4.78906C13.4609 4.95312 13.5078 5.11719 13.5078 5.30469C13.5078 5.49219 13.4375 5.65625 13.2969 5.79688L10.8125 8.21094L11.3984 11.6328C11.4219 11.8203 11.375 12.0078 11.2812 12.1719C11.1875 12.3359 11.0469 12.4297 10.8594 12.4766C10.6719 12.5234 10.4844 12.5 10.3203 12.4062L7.25 10.8125L4.17969 12.4062C3.99219 12.5 3.82812 12.5234 3.64062 12.4766C3.45312 12.4297 3.28906 12.3359 3.19531 12.1719C3.10156 12.0078 3.05469 11.8203 3.10156 11.6328L3.6875 8.21094L1.20312 5.79688C1.0625 5.65625 0.96875 5.49219 0.96875 5.30469C0.96875 5.11719 1.01562 4.95312 1.13281 4.78906C1.25 4.64844 1.41406 4.55469 1.625 4.50781L5.04688 4.01562L6.57031 0.921875Z" fill="#FFF1DC"/>
</svg>
