<svg width="18" height="18" viewBox="0 0 18 18" fill="none" xmlns="http://www.w3.org/2000/svg">
<path fill-rule="evenodd" clip-rule="evenodd" d="M9.53879 7.5V10.5H13.9413V7.5H9.53879ZM8.07129 7.5H3.66879V10.5H8.07129V7.5ZM9.53879 14.25H13.9413V12H9.53879V14.25ZM8.07129 14.25V12H3.66879V14.25H8.07129ZM9.53879 3.75V6H13.9413V3.75H9.53879ZM8.07129 3.75H3.66879V6H8.07129V3.75ZM2.93504 2.25H14.675C15.0803 2.25 15.4088 2.58579 15.4088 3V15C15.4088 15.4142 15.0803 15.75 14.675 15.75H2.93504C2.52981 15.75 2.20129 15.4142 2.20129 15V3C2.20129 2.58579 2.52981 2.25 2.93504 2.25Z" fill="white"/>
</svg>
