<svg width="20" height="22" viewBox="0 0 20 22" fill="none" xmlns="http://www.w3.org/2000/svg">
<path fill-rule="evenodd" clip-rule="evenodd" d="M16.9696 2.65901C16.0909 1.78033 14.6663 1.78033 13.7876 2.65901L2.84835 13.5983C1.38388 15.0628 1.38388 17.4372 2.84835 18.9016C4.31282 20.3661 6.68718 20.3661 8.15165 18.9016L15.8446 11.2087C16.1375 10.9158 16.6124 10.9158 16.9053 11.2087C17.1982 11.5015 17.1982 11.9764 16.9053 12.2693L9.21231 19.9623C7.16206 22.0126 3.83794 22.0126 1.78769 19.9623C-0.262563 17.9121 -0.262563 14.5879 1.78769 12.5377L12.7269 1.59835C14.1914 0.133884 16.5658 0.133883 18.0302 1.59835C19.4947 3.06281 19.4947 5.43718 18.0302 6.90165L7.09735 17.8346C7.09452 17.8374 7.09167 17.8403 7.08878 17.8432L7.08191 17.85L7.07971 17.8522L7.07747 17.8544C6.19765 18.7196 4.78319 18.7152 3.90901 17.841C3.03033 16.9623 3.03033 15.5377 3.90901 14.659L11.7195 6.84833C12.0124 6.55543 12.4873 6.55542 12.7802 6.84831C13.0731 7.1412 13.0731 7.61608 12.7802 7.90897L4.96968 15.7197C4.67678 16.0125 4.67678 16.4874 4.96967 16.7803C5.26041 17.0711 5.73056 17.0732 6.02383 16.7867L16.9696 5.84099C17.8483 4.96231 17.8483 3.53769 16.9696 2.65901Z" fill="#FFFFFF"/>
</svg>
