<svg width="15" height="19" viewBox="0 0 15 19" fill="none" xmlns="http://www.w3.org/2000/svg">
<path d="M14.5755 16.1909C14.5139 15.9097 14.208 15.7298 13.8989 15.7936C13.3973 15.897 12.6125 16.0231 11.7679 16.0231C9.10508 16.0231 6.9863 14.5477 6.07004 12.3992H11.4033C11.5311 12.3992 11.6552 12.3598 11.755 12.2876C11.8548 12.2154 11.9245 12.1146 11.9525 12.0019L12.2515 10.7991C12.3306 10.4809 12.063 10.1786 11.7023 10.1786H5.40508C5.34831 9.57091 5.33874 8.9789 5.4115 8.38693H12.2883C12.4167 8.38694 12.5412 8.34726 12.6413 8.27449C12.7413 8.20172 12.8108 8.10022 12.8382 7.98683L13.1437 6.7249C13.2206 6.4075 12.9532 6.10714 12.5938 6.10714H6.10705C7.07496 4.19904 9.04789 2.92507 11.6247 2.92507C12.3042 2.92507 12.9646 3.02049 13.4003 3.10086C13.6919 3.15464 13.9795 2.99492 14.0571 2.73515L14.6196 0.853473C14.7051 0.567583 14.504 0.276009 14.1822 0.220833C13.6143 0.1235 12.6993 0 11.7106 0C7.15161 0 3.47281 2.55533 2.11451 6.10714H0.562931C0.252052 6.10714 0 6.33502 0 6.61607V7.878C0 8.15906 0.252052 8.38693 0.562931 8.38693H1.57475C1.52742 8.96401 1.51935 9.62901 1.56626 10.1786H0.562931C0.252052 10.1786 0 10.4064 0 10.6875V11.8903C0 12.1713 0.252052 12.3992 0.562931 12.3992H1.97561C3.14955 16.2302 6.81447 19 11.7106 19C12.9444 19 13.9887 18.8073 14.5769 18.6697C14.8662 18.6021 15.0473 18.3428 14.9892 18.0778L14.5755 16.1909Z" fill="#DFDEDE"/>
</svg>
