<svg width="117" height="38" viewBox="0 0 117 38" fill="none" xmlns="http://www.w3.org/2000/svg">
<rect width="117" height="38" rx="19" fill="#882AFF"/>
<path d="M35.4097 9.44C36.8897 9.44 38.0564 9.74 38.9097 10.34C39.7764 10.94 40.2097 11.86 40.2097 13.1C40.2097 13.9267 40.0164 14.6333 39.6297 15.22C39.2564 15.7933 38.7297 16.24 38.0497 16.56C37.3697 16.8667 36.5764 17.0333 35.6697 17.06L35.3097 15.82C36.3897 15.8333 37.3497 16.0067 38.1897 16.34C39.0297 16.66 39.6964 17.12 40.1897 17.72C40.683 18.3067 40.9297 19.0067 40.9297 19.82C40.9297 20.58 40.7897 21.2267 40.5097 21.76C40.2297 22.28 39.8564 22.7067 39.3897 23.04C38.923 23.3733 38.3964 23.62 37.8097 23.78C37.223 23.9267 36.6097 24 35.9697 24H31.4297V9.44H35.4097ZM35.7897 15.64C36.483 15.64 36.9897 15.44 37.3097 15.04C37.643 14.6267 37.8097 14.1467 37.8097 13.6C37.8097 12.9333 37.603 12.4467 37.1897 12.14C36.7764 11.8333 36.2164 11.68 35.5097 11.68H33.7697V15.64H35.7897ZM35.8697 21.84C36.363 21.84 36.8097 21.7733 37.2097 21.64C37.6097 21.4933 37.923 21.2733 38.1497 20.98C38.3897 20.6733 38.5097 20.2933 38.5097 19.84C38.5097 19.3333 38.3697 18.94 38.0897 18.66C37.823 18.38 37.4764 18.18 37.0497 18.06C36.623 17.94 36.1764 17.88 35.7097 17.88H33.7697V21.84H35.8697ZM47.4073 24.22C46.4073 24.22 45.554 24.0267 44.8473 23.64C44.1407 23.2533 43.6007 22.72 43.2273 22.04C42.854 21.3467 42.6673 20.5667 42.6673 19.7C42.6673 18.8467 42.8807 18.08 43.3073 17.4C43.734 16.72 44.3073 16.18 45.0273 15.78C45.7607 15.3667 46.5673 15.16 47.4473 15.16C48.6073 15.16 49.5607 15.5 50.3073 16.18C51.0673 16.8467 51.574 17.7933 51.8273 19.02L45.0073 21.32L44.4873 20.06L49.8073 18.16L49.3473 18.42C49.2007 18.02 48.9607 17.6733 48.6273 17.38C48.3073 17.0867 47.854 16.94 47.2673 16.94C46.8007 16.94 46.3873 17.0533 46.0273 17.28C45.6673 17.4933 45.3807 17.8 45.1673 18.2C44.9673 18.5867 44.8673 19.0467 44.8673 19.58C44.8673 20.1267 44.9807 20.6067 45.2073 21.02C45.434 21.4333 45.7407 21.7533 46.1273 21.98C46.514 22.1933 46.954 22.3 47.4473 22.3C47.794 22.3 48.1273 22.24 48.4473 22.12C48.7673 22 49.0673 21.84 49.3473 21.64L50.3673 23.3C49.9273 23.58 49.4407 23.8067 48.9073 23.98C48.3873 24.14 47.8873 24.22 47.4073 24.22ZM49.9073 11.34L47.2073 14.02H45.8073L47.4073 11.34H49.9073ZM59.1714 24.22C58.4114 24.22 57.7581 24.0733 57.2114 23.78C56.6647 23.4733 56.2181 23.0867 55.8714 22.62L56.0714 22.04V24H53.8314V8.4H56.0714V17.28L56.0314 16.48C56.3647 16.0933 56.8314 15.78 57.4314 15.54C58.0314 15.2867 58.7114 15.16 59.4714 15.16C60.2181 15.16 60.8981 15.34 61.5114 15.7C62.1381 16.0467 62.6381 16.5533 63.0114 17.22C63.3847 17.8867 63.5714 18.6867 63.5714 19.62C63.5714 20.5667 63.3647 21.3867 62.9514 22.08C62.5514 22.7733 62.0114 23.3067 61.3314 23.68C60.6647 24.04 59.9447 24.22 59.1714 24.22ZM58.6914 22.32C59.1714 22.32 59.6047 22.2067 59.9914 21.98C60.3914 21.74 60.7047 21.4133 60.9314 21C61.1714 20.5867 61.2914 20.12 61.2914 19.6C61.2914 19.0933 61.1714 18.64 60.9314 18.24C60.7047 17.84 60.3914 17.5267 59.9914 17.3C59.6047 17.06 59.1714 16.94 58.6914 16.94C58.2647 16.94 57.8714 17.0133 57.5114 17.16C57.1647 17.3067 56.8647 17.5133 56.6114 17.78C56.3714 18.0333 56.1914 18.3333 56.0714 18.68V20.56C56.2047 20.9067 56.3914 21.2133 56.6314 21.48C56.8714 21.7467 57.1647 21.9533 57.5114 22.1C57.8714 22.2467 58.2647 22.32 58.6914 22.32ZM69.7808 24.22C68.7808 24.22 67.9274 24.0267 67.2208 23.64C66.5141 23.2533 65.9741 22.72 65.6008 22.04C65.2274 21.3467 65.0408 20.5667 65.0408 19.7C65.0408 18.8467 65.2541 18.08 65.6808 17.4C66.1074 16.72 66.6808 16.18 67.4008 15.78C68.1341 15.3667 68.9408 15.16 69.8208 15.16C70.9808 15.16 71.9341 15.5 72.6808 16.18C73.4408 16.8467 73.9474 17.7933 74.2008 19.02L67.3808 21.32L66.8608 20.06L72.1808 18.16L71.7208 18.42C71.5741 18.02 71.3341 17.6733 71.0008 17.38C70.6808 17.0867 70.2274 16.94 69.6408 16.94C69.1741 16.94 68.7608 17.0533 68.4008 17.28C68.0408 17.4933 67.7541 17.8 67.5408 18.2C67.3408 18.5867 67.2408 19.0467 67.2408 19.58C67.2408 20.1267 67.3541 20.6067 67.5808 21.02C67.8074 21.4333 68.1141 21.7533 68.5008 21.98C68.8874 22.1933 69.3274 22.3 69.8208 22.3C70.1674 22.3 70.5008 22.24 70.8208 22.12C71.1408 22 71.4408 21.84 71.7208 21.64L72.7408 23.3C72.3008 23.58 71.8141 23.8067 71.2808 23.98C70.7608 24.14 70.2608 24.22 69.7808 24.22ZM72.2808 11.34L69.5808 14.02H68.1808L69.7808 11.34H72.2808ZM81.9111 10.8H85.5711V24H83.2311V13.04H81.9111V10.8Z" fill="white"/>
</svg>
