<svg width="119" height="40" viewBox="0 0 119 40" fill="none" xmlns="http://www.w3.org/2000/svg">
<rect x="1" y="1" width="117" height="38" rx="19" fill="white" stroke="#882AFF"/>
<path d="M34.1636 10.44C35.6436 10.44 36.8103 10.74 37.6636 11.34C38.5303 11.94 38.9636 12.86 38.9636 14.1C38.9636 14.9267 38.7703 15.6333 38.3836 16.22C38.0103 16.7933 37.4836 17.24 36.8036 17.56C36.1236 17.8667 35.3303 18.0333 34.4236 18.06L34.0636 16.82C35.1436 16.8333 36.1036 17.0067 36.9436 17.34C37.7836 17.66 38.4503 18.12 38.9436 18.72C39.4369 19.3067 39.6836 20.0067 39.6836 20.82C39.6836 21.58 39.5436 22.2267 39.2636 22.76C38.9836 23.28 38.6103 23.7067 38.1436 24.04C37.6769 24.3733 37.1503 24.62 36.5636 24.78C35.9769 24.9267 35.3636 25 34.7236 25H30.1836V10.44H34.1636ZM34.5436 16.64C35.2369 16.64 35.7436 16.44 36.0636 16.04C36.3969 15.6267 36.5636 15.1467 36.5636 14.6C36.5636 13.9333 36.3569 13.4467 35.9436 13.14C35.5303 12.8333 34.9703 12.68 34.2636 12.68H32.5236V16.64H34.5436ZM34.6236 22.84C35.1169 22.84 35.5636 22.7733 35.9636 22.64C36.3636 22.4933 36.6769 22.2733 36.9036 21.98C37.1436 21.6733 37.2636 21.2933 37.2636 20.84C37.2636 20.3333 37.1236 19.94 36.8436 19.66C36.5769 19.38 36.2303 19.18 35.8036 19.06C35.3769 18.94 34.9303 18.88 34.4636 18.88H32.5236V22.84H34.6236ZM46.1612 25.22C45.1612 25.22 44.3079 25.0267 43.6012 24.64C42.8946 24.2533 42.3546 23.72 41.9812 23.04C41.6079 22.3467 41.4212 21.5667 41.4212 20.7C41.4212 19.8467 41.6346 19.08 42.0612 18.4C42.4879 17.72 43.0612 17.18 43.7812 16.78C44.5146 16.3667 45.3212 16.16 46.2012 16.16C47.3612 16.16 48.3146 16.5 49.0612 17.18C49.8212 17.8467 50.3279 18.7933 50.5812 20.02L43.7612 22.32L43.2412 21.06L48.5612 19.16L48.1012 19.42C47.9546 19.02 47.7146 18.6733 47.3812 18.38C47.0612 18.0867 46.6079 17.94 46.0212 17.94C45.5546 17.94 45.1412 18.0533 44.7812 18.28C44.4212 18.4933 44.1346 18.8 43.9212 19.2C43.7212 19.5867 43.6212 20.0467 43.6212 20.58C43.6212 21.1267 43.7346 21.6067 43.9612 22.02C44.1879 22.4333 44.4946 22.7533 44.8812 22.98C45.2679 23.1933 45.7079 23.3 46.2012 23.3C46.5479 23.3 46.8812 23.24 47.2012 23.12C47.5212 23 47.8212 22.84 48.1012 22.64L49.1212 24.3C48.6812 24.58 48.1946 24.8067 47.6612 24.98C47.1412 25.14 46.6412 25.22 46.1612 25.22ZM48.6612 12.34L45.9612 15.02H44.5612L46.1612 12.34H48.6612ZM57.9253 25.22C57.1653 25.22 56.512 25.0733 55.9653 24.78C55.4186 24.4733 54.972 24.0867 54.6253 23.62L54.8253 23.04V25H52.5853V9.4H54.8253V18.28L54.7853 17.48C55.1186 17.0933 55.5853 16.78 56.1853 16.54C56.7853 16.2867 57.4653 16.16 58.2253 16.16C58.972 16.16 59.652 16.34 60.2653 16.7C60.892 17.0467 61.392 17.5533 61.7653 18.22C62.1386 18.8867 62.3253 19.6867 62.3253 20.62C62.3253 21.5667 62.1186 22.3867 61.7053 23.08C61.3053 23.7733 60.7653 24.3067 60.0853 24.68C59.4186 25.04 58.6986 25.22 57.9253 25.22ZM57.4453 23.32C57.9253 23.32 58.3586 23.2067 58.7453 22.98C59.1453 22.74 59.4586 22.4133 59.6853 22C59.9253 21.5867 60.0453 21.12 60.0453 20.6C60.0453 20.0933 59.9253 19.64 59.6853 19.24C59.4586 18.84 59.1453 18.5267 58.7453 18.3C58.3586 18.06 57.9253 17.94 57.4453 17.94C57.0186 17.94 56.6253 18.0133 56.2653 18.16C55.9186 18.3067 55.6186 18.5133 55.3653 18.78C55.1253 19.0333 54.9453 19.3333 54.8253 19.68V21.56C54.9586 21.9067 55.1453 22.2133 55.3853 22.48C55.6253 22.7467 55.9186 22.9533 56.2653 23.1C56.6253 23.2467 57.0186 23.32 57.4453 23.32ZM68.5347 25.22C67.5347 25.22 66.6814 25.0267 65.9747 24.64C65.268 24.2533 64.728 23.72 64.3547 23.04C63.9814 22.3467 63.7947 21.5667 63.7947 20.7C63.7947 19.8467 64.008 19.08 64.4347 18.4C64.8614 17.72 65.4347 17.18 66.1547 16.78C66.888 16.3667 67.6947 16.16 68.5747 16.16C69.7347 16.16 70.688 16.5 71.4347 17.18C72.1947 17.8467 72.7014 18.7933 72.9547 20.02L66.1347 22.32L65.6147 21.06L70.9347 19.16L70.4747 19.42C70.328 19.02 70.088 18.6733 69.7547 18.38C69.4347 18.0867 68.9814 17.94 68.3947 17.94C67.928 17.94 67.5147 18.0533 67.1547 18.28C66.7947 18.4933 66.508 18.8 66.2947 19.2C66.0947 19.5867 65.9947 20.0467 65.9947 20.58C65.9947 21.1267 66.108 21.6067 66.3347 22.02C66.5614 22.4333 66.868 22.7533 67.2547 22.98C67.6414 23.1933 68.0814 23.3 68.5747 23.3C68.9214 23.3 69.2547 23.24 69.5747 23.12C69.8947 23 70.1947 22.84 70.4747 22.64L71.4947 24.3C71.0547 24.58 70.568 24.8067 70.0347 24.98C69.5147 25.14 69.0147 25.22 68.5347 25.22ZM71.0347 12.34L68.3347 15.02H66.9347L68.5347 12.34H71.0347ZM80.705 25C81.5317 24.16 82.3317 23.3467 83.105 22.56C83.8783 21.7733 84.5717 21.0133 85.185 20.28C85.7983 19.5333 86.2783 18.82 86.625 18.14C86.985 17.4467 87.165 16.7733 87.165 16.12C87.165 15.7467 87.105 15.42 86.985 15.14C86.865 14.86 86.6983 14.6267 86.485 14.44C86.2717 14.2533 86.025 14.1133 85.745 14.02C85.4783 13.9267 85.185 13.88 84.865 13.88C84.4783 13.88 84.145 13.94 83.865 14.06C83.585 14.18 83.3583 14.34 83.185 14.54C83.0117 14.7267 82.8783 14.9333 82.785 15.16C82.6917 15.3733 82.645 15.5933 82.645 15.82C82.645 16.26 82.7117 16.6533 82.845 17C82.9917 17.3333 83.185 17.6267 83.425 17.88L82.005 19.18C81.6583 18.9933 81.365 18.7 81.125 18.3C80.885 17.9 80.6983 17.48 80.565 17.04C80.445 16.6 80.385 16.2133 80.385 15.88C80.385 15.1467 80.5717 14.46 80.945 13.82C81.3317 13.18 81.885 12.66 82.605 12.26C83.3383 11.8467 84.225 11.64 85.265 11.64C86.1317 11.64 86.885 11.84 87.525 12.24C88.1783 12.6267 88.685 13.1467 89.045 13.8C89.405 14.4533 89.585 15.16 89.585 15.92C89.585 16.56 89.465 17.1867 89.225 17.8C88.9983 18.4 88.685 19 88.285 19.6C87.885 20.1867 87.4383 20.7667 86.945 21.34C86.465 21.9133 85.9783 22.4933 85.485 23.08L84.445 22.76H89.905V25H80.705Z" fill="#882AFF"/>
</svg>
