<svg width="77" height="77" viewBox="0 0 77 77" fill="none" xmlns="http://www.w3.org/2000/svg">
<path fill-rule="evenodd" clip-rule="evenodd" d="M74.9952 19.0299C74.9952 19.0299 72.5188 7.19619 61.8186 3.03839C56.7077 1.03945 47.524 0.0799576 38.5 0C29.476 0.0799576 20.2923 1.03945 15.2613 2.95843C4.56025 7.11623 2.08465 18.95 2.08465 18.95C0.487486 25.6664 -0.0715216 32.4628 0.0083366 38.4596C-0.0715216 44.5364 0.407628 51.3328 2.08465 58.0492C2.08465 58.0492 4.56025 69.883 15.2613 74.0408C20.2923 75.9598 29.476 76.9192 38.5 77C47.524 76.9192 56.7077 76.0397 61.7379 74.0408C72.4397 69.883 74.9145 58.0492 74.9145 58.0492C76.5117 51.3328 77.0715 44.5364 76.9916 38.5396C77.0715 32.4628 76.5923 25.6664 74.9952 19.0299Z" fill="url(#paint0_linear_70_784)"/>
<path d="M12.235 33.432H14.12V43H12.235V33.432ZM17.6629 37.319L17.8059 38.333L17.7799 38.242C17.9793 37.8867 18.2609 37.6007 18.6249 37.384C18.9889 37.1587 19.4353 37.046 19.9639 37.046C20.5013 37.046 20.9476 37.2063 21.3029 37.527C21.6669 37.839 21.8533 38.2463 21.8619 38.749V43H20.0419V39.425C20.0333 39.1737 19.9639 38.9743 19.8339 38.827C19.7126 38.671 19.5046 38.593 19.2099 38.593C18.9326 38.593 18.6899 38.684 18.4819 38.866C18.2739 39.048 18.1136 39.295 18.0009 39.607C17.8883 39.919 17.8319 40.2787 17.8319 40.686V43H16.0119V37.319H17.6629ZM25.2981 43.117C24.8301 43.117 24.3924 43.0347 23.9851 42.87C23.5864 42.7053 23.2484 42.4757 22.9711 42.181L23.7251 41.18C24.0024 41.4313 24.2581 41.6133 24.4921 41.726C24.7348 41.83 24.9514 41.882 25.1421 41.882C25.2894 41.882 25.4194 41.869 25.5321 41.843C25.6534 41.8083 25.7488 41.7607 25.8181 41.7C25.8874 41.6307 25.9221 41.544 25.9221 41.44C25.9221 41.2927 25.8614 41.1757 25.7401 41.089C25.6274 41.0023 25.4801 40.933 25.2981 40.881C25.1161 40.8203 24.9211 40.7597 24.7131 40.699C24.1931 40.5343 23.8161 40.296 23.5821 39.984C23.3568 39.6633 23.2441 39.3167 23.2441 38.944C23.2441 38.658 23.3178 38.372 23.4651 38.086C23.6211 37.7913 23.8638 37.5487 24.1931 37.358C24.5311 37.1587 24.9644 37.059 25.4931 37.059C25.9698 37.059 26.3728 37.1067 26.7021 37.202C27.0314 37.2973 27.3434 37.4533 27.6381 37.67L26.9491 38.736C26.7844 38.606 26.5981 38.4977 26.3901 38.411C26.1908 38.3157 26.0044 38.2637 25.8311 38.255C25.6751 38.2463 25.5408 38.2637 25.4281 38.307C25.3241 38.3503 25.2418 38.4067 25.1811 38.476C25.1204 38.5453 25.0901 38.619 25.0901 38.697C25.0814 38.8617 25.1421 38.9917 25.2721 39.087C25.4108 39.1823 25.5841 39.256 25.7921 39.308C26.0001 39.36 26.2038 39.4207 26.4031 39.49C26.6804 39.5767 26.9188 39.6937 27.1181 39.841C27.3174 39.9883 27.4691 40.166 27.5731 40.374C27.6858 40.5733 27.7421 40.816 27.7421 41.102C27.7421 41.4487 27.6511 41.778 27.4691 42.09C27.2958 42.3933 27.0271 42.6403 26.6631 42.831C26.3078 43.0217 25.8528 43.117 25.2981 43.117ZM33.811 42.493C33.5596 42.6923 33.2433 42.8527 32.862 42.974C32.4893 43.0953 32.121 43.156 31.757 43.156C31.107 43.156 30.5393 43.039 30.054 42.805C29.5773 42.5623 29.2046 42.22 28.936 41.778C28.676 41.3273 28.546 40.7857 28.546 40.153C28.546 39.5203 28.689 38.983 28.975 38.541C29.261 38.0903 29.6336 37.748 30.093 37.514C30.561 37.28 31.0506 37.163 31.562 37.163C32.0733 37.163 32.5153 37.2323 32.888 37.371C33.2693 37.5097 33.5943 37.6917 33.863 37.917L32.979 39.087C32.8576 38.9917 32.6886 38.8963 32.472 38.801C32.264 38.697 32.017 38.645 31.731 38.645C31.4796 38.645 31.25 38.71 31.042 38.84C30.834 38.97 30.6693 39.1477 30.548 39.373C30.4266 39.5983 30.366 39.8583 30.366 40.153C30.366 40.4303 30.431 40.686 30.561 40.92C30.691 41.154 30.8686 41.3403 31.094 41.479C31.328 41.609 31.601 41.674 31.913 41.674C32.1123 41.674 32.2943 41.648 32.459 41.596C32.6323 41.5353 32.7796 41.453 32.901 41.349L33.811 42.493ZM36.5681 37.319L36.7371 38.879L36.6981 38.645C36.8628 38.307 37.0881 38.021 37.3741 37.787C37.6601 37.5443 37.9418 37.358 38.2191 37.228C38.5051 37.098 38.7218 37.033 38.8691 37.033L38.7781 38.853C38.3534 38.801 37.9894 38.8703 37.6861 39.061C37.3828 39.2517 37.1488 39.503 36.9841 39.815C36.8194 40.127 36.7371 40.4477 36.7371 40.777V43H34.9301V37.319H36.5681ZM39.9836 37.319H41.8036V43H39.9836V37.319ZM39.9446 35.304C39.9446 35.0353 40.0486 34.8143 40.2566 34.641C40.4732 34.4677 40.7029 34.381 40.9456 34.381C41.1882 34.381 41.4092 34.4677 41.6086 34.641C41.8166 34.8143 41.9206 35.0353 41.9206 35.304C41.9206 35.5727 41.8166 35.7937 41.6086 35.967C41.4092 36.1317 41.1882 36.214 40.9456 36.214C40.7029 36.214 40.4732 36.1317 40.2566 35.967C40.0486 35.7937 39.9446 35.5727 39.9446 35.304ZM46.9613 43.156C46.6233 43.156 46.2897 43.0953 45.9603 42.974C45.6397 42.844 45.371 42.662 45.1543 42.428L45.2063 41.895V45.73H43.3993V37.189H44.9593L45.2193 38.294L45.0763 37.904C45.371 37.6527 45.7003 37.4447 46.0643 37.28C46.4283 37.1153 46.8487 37.033 47.3253 37.033C47.854 37.033 48.3263 37.1587 48.7423 37.41C49.1583 37.6527 49.4833 38.008 49.7173 38.476C49.96 38.9353 50.0813 39.49 50.0813 40.14C50.0813 40.7813 49.947 41.3273 49.6783 41.778C49.4097 42.2287 49.0413 42.571 48.5733 42.805C48.1053 43.039 47.568 43.156 46.9613 43.156ZM46.5973 41.726C46.892 41.726 47.1607 41.661 47.4033 41.531C47.6547 41.401 47.854 41.219 48.0013 40.985C48.1573 40.7423 48.2353 40.4693 48.2353 40.166C48.2353 39.8453 48.166 39.568 48.0273 39.334C47.8973 39.0913 47.7153 38.905 47.4813 38.775C47.256 38.6363 47.0047 38.567 46.7273 38.567C46.4847 38.567 46.268 38.6017 46.0773 38.671C45.8953 38.7317 45.7307 38.827 45.5833 38.957C45.4447 39.0783 45.3233 39.2343 45.2193 39.425V40.816C45.2887 40.998 45.3883 41.1583 45.5183 41.297C45.6483 41.4357 45.8043 41.544 45.9863 41.622C46.177 41.6913 46.3807 41.726 46.5973 41.726ZM51.7661 34.823H53.5861V37.293H54.9641V38.71H53.5861V43H51.7661V38.71H50.8821V37.293H51.7661V34.823ZM56.0707 37.319H57.8907V43H56.0707V37.319ZM56.0317 35.304C56.0317 35.0353 56.1357 34.8143 56.3437 34.641C56.5604 34.4677 56.79 34.381 57.0327 34.381C57.2754 34.381 57.4964 34.4677 57.6957 34.641C57.9037 34.8143 58.0077 35.0353 58.0077 35.304C58.0077 35.5727 57.9037 35.7937 57.6957 35.967C57.4964 36.1317 57.2754 36.214 57.0327 36.214C56.79 36.214 56.5604 36.1317 56.3437 35.967C56.1357 35.7937 56.0317 35.5727 56.0317 35.304ZM59.0445 40.088C59.0445 39.5073 59.1788 38.9873 59.4475 38.528C59.7248 38.0687 60.1105 37.709 60.6045 37.449C61.0985 37.1803 61.6661 37.046 62.3075 37.046C62.9575 37.046 63.5208 37.1803 63.9975 37.449C64.4741 37.709 64.8381 38.0687 65.0895 38.528C65.3495 38.9873 65.4795 39.5073 65.4795 40.088C65.4795 40.6687 65.3495 41.193 65.0895 41.661C64.8381 42.1203 64.4741 42.4843 63.9975 42.753C63.5208 43.0217 62.9488 43.156 62.2815 43.156C61.6575 43.156 61.0985 43.0347 60.6045 42.792C60.1191 42.5493 59.7378 42.1983 59.4605 41.739C59.1831 41.2797 59.0445 40.7293 59.0445 40.088ZM60.8775 40.101C60.8775 40.3957 60.9381 40.6643 61.0595 40.907C61.1808 41.141 61.3455 41.3273 61.5535 41.466C61.7615 41.6047 61.9955 41.674 62.2555 41.674C62.5415 41.674 62.7885 41.6047 62.9965 41.466C63.2045 41.3273 63.3648 41.141 63.4775 40.907C63.5901 40.6643 63.6465 40.3957 63.6465 40.101C63.6465 39.7977 63.5901 39.529 63.4775 39.295C63.3648 39.061 63.2045 38.8747 62.9965 38.736C62.7885 38.5973 62.5415 38.528 62.2555 38.528C61.9955 38.528 61.7615 38.5973 61.5535 38.736C61.3455 38.8747 61.1808 39.061 61.0595 39.295C60.9381 39.529 60.8775 39.7977 60.8775 40.101ZM68.2857 37.319L68.4287 38.333L68.4027 38.242C68.602 37.8867 68.8837 37.6007 69.2477 37.384C69.6117 37.1587 70.058 37.046 70.5867 37.046C71.124 37.046 71.5703 37.2063 71.9257 37.527C72.2897 37.839 72.476 38.2463 72.4847 38.749V43H70.6647V39.425C70.656 39.1737 70.5867 38.9743 70.4567 38.827C70.3353 38.671 70.1273 38.593 69.8327 38.593C69.5553 38.593 69.3127 38.684 69.1047 38.866C68.8967 39.048 68.7363 39.295 68.6237 39.607C68.511 39.919 68.4547 40.2787 68.4547 40.686V43H66.6347V37.319H68.2857Z" fill="white"/>
<defs>
<linearGradient id="paint0_linear_70_784" x1="-29.7483" y1="49.1365" x2="33.5179" y2="108.633" gradientUnits="userSpaceOnUse">
<stop stop-color="#FFAFBD"/>
<stop offset="1" stop-color="#FFC3A0"/>
</linearGradient>
</defs>
</svg>
