<svg width="77" height="77" viewBox="0 0 77 77" fill="none" xmlns="http://www.w3.org/2000/svg">
<path fill-rule="evenodd" clip-rule="evenodd" d="M74.9952 19.0299C74.9952 19.0299 72.5188 7.19619 61.8186 3.03839C56.7077 1.03945 47.524 0.0799576 38.5 0C29.476 0.0799576 20.2923 1.03945 15.2613 2.95843C4.56025 7.11623 2.08465 18.95 2.08465 18.95C0.487486 25.6664 -0.0715216 32.4628 0.0083366 38.4596C-0.0715216 44.5364 0.407628 51.3328 2.08465 58.0492C2.08465 58.0492 4.56025 69.883 15.2613 74.0408C20.2923 75.9598 29.476 76.9192 38.5 77C47.524 76.9192 56.7077 76.0397 61.7379 74.0408C72.4397 69.883 74.9145 58.0492 74.9145 58.0492C76.5117 51.3328 77.0715 44.5364 76.9916 38.5396C77.0715 32.4628 76.5923 25.6664 74.9952 19.0299Z" fill="url(#paint0_linear_70_467)"/>
<path d="M20.235 33.432H26.761V35.252H22.12V37.293H26.228V39.113H22.12V41.18H26.943V43H20.235V33.432ZM29.9666 37.319L30.0966 38.229C30.296 37.8737 30.5776 37.5877 30.9416 37.371C31.3056 37.1543 31.7476 37.046 32.2676 37.046C32.805 37.046 33.2513 37.2063 33.6066 37.527C33.9706 37.839 34.157 38.2463 34.1656 38.749V43H32.3456V39.425C32.337 39.1737 32.2676 38.9743 32.1376 38.827C32.0163 38.671 31.8083 38.593 31.5136 38.593C31.089 38.593 30.751 38.7923 30.4996 39.191C30.257 39.581 30.1356 40.0793 30.1356 40.686V43H28.3156V37.319H29.9666ZM36.3018 43V38.905H35.3398V37.293H36.3018V35.317C36.3018 34.5717 36.5141 33.965 36.9388 33.497C37.3721 33.0203 37.9961 32.782 38.8108 32.782C39.0535 32.782 39.3221 32.821 39.6168 32.899C39.9201 32.9683 40.1845 33.0853 40.4098 33.25L39.6428 34.563C39.5561 34.4503 39.4521 34.3767 39.3308 34.342C39.2181 34.2987 39.1098 34.277 39.0058 34.277C38.7458 34.277 38.5335 34.3637 38.3688 34.537C38.2041 34.7103 38.1218 34.9877 38.1218 35.369V37.293H39.8378V38.905H38.1218V43H36.3018ZM43.1251 43.156C42.5964 43.156 42.1154 43.052 41.6821 42.844C41.2574 42.6273 40.9194 42.298 40.6681 41.856C40.4168 41.414 40.2911 40.8507 40.2911 40.166C40.2911 39.5247 40.4211 38.97 40.6811 38.502C40.9411 38.034 41.2834 37.6743 41.7081 37.423C42.1328 37.163 42.5834 37.033 43.0601 37.033C43.6234 37.033 44.0481 37.124 44.3341 37.306C44.6288 37.488 44.8628 37.6873 45.0361 37.904L45.1531 37.319H46.8431V43H45.0231V42.298C44.9364 42.3847 44.8064 42.4973 44.6331 42.636C44.4684 42.7747 44.2604 42.896 44.0091 43C43.7578 43.104 43.4631 43.156 43.1251 43.156ZM43.6451 41.674C44.2778 41.674 44.7371 41.388 45.0231 40.816V39.425C44.9191 39.1477 44.7371 38.9267 44.4771 38.762C44.2258 38.5973 43.9268 38.515 43.5801 38.515C43.1901 38.515 42.8521 38.6623 42.5661 38.957C42.2801 39.243 42.1371 39.6157 42.1371 40.075C42.1371 40.3783 42.2064 40.6513 42.3451 40.894C42.4838 41.1367 42.6658 41.3273 42.8911 41.466C43.1251 41.6047 43.3764 41.674 43.6451 41.674ZM50.0909 37.319L50.2209 38.229C50.4202 37.8737 50.7019 37.5877 51.0659 37.371C51.4299 37.1543 51.8719 37.046 52.3919 37.046C52.9292 37.046 53.3755 37.2063 53.7309 37.527C54.0949 37.839 54.2812 38.2463 54.2899 38.749V43H52.4699V39.425C52.4612 39.1737 52.3919 38.9743 52.2619 38.827C52.1405 38.671 51.9325 38.593 51.6379 38.593C51.2132 38.593 50.8752 38.7923 50.6239 39.191C50.3812 39.581 50.2599 40.0793 50.2599 40.686V43H48.4399V37.319H50.0909ZM56.4131 34.823H58.2331V37.293H59.6111V38.71H58.2331V43H56.4131V38.71H55.5291V37.293H56.4131V34.823ZM62.5637 43.117C62.0957 43.117 61.658 43.0347 61.2507 42.87C60.852 42.7053 60.514 42.4757 60.2367 42.181L60.9907 41.18C61.268 41.4313 61.5237 41.6133 61.7577 41.726C62.0004 41.83 62.217 41.882 62.4077 41.882C62.633 41.882 62.8194 41.8473 62.9667 41.778C63.114 41.7087 63.1877 41.596 63.1877 41.44C63.1877 41.2927 63.127 41.1757 63.0057 41.089C62.893 41.0023 62.7457 40.933 62.5637 40.881C62.3817 40.8203 62.1867 40.7597 61.9787 40.699C61.4587 40.5343 61.0817 40.296 60.8477 39.984C60.6224 39.6633 60.5097 39.3167 60.5097 38.944C60.5097 38.658 60.5834 38.372 60.7307 38.086C60.8867 37.7913 61.1294 37.5487 61.4587 37.358C61.7967 37.1587 62.23 37.059 62.7587 37.059C63.2354 37.059 63.6384 37.1067 63.9677 37.202C64.297 37.2973 64.609 37.4533 64.9037 37.67L64.2147 38.736C64.05 38.606 63.8637 38.4977 63.6557 38.411C63.4564 38.3157 63.27 38.2637 63.0967 38.255C62.8627 38.2463 62.6807 38.2897 62.5507 38.385C62.4207 38.4717 62.3557 38.5757 62.3557 38.697C62.347 38.8617 62.4077 38.9917 62.5377 39.087C62.6764 39.1823 62.8497 39.256 63.0577 39.308C63.2657 39.36 63.4694 39.4207 63.6687 39.49C64.076 39.6287 64.401 39.828 64.6437 40.088C64.8864 40.3393 65.0077 40.6773 65.0077 41.102C65.0077 41.4487 64.9167 41.778 64.7347 42.09C64.5614 42.3933 64.2927 42.6403 63.9287 42.831C63.5734 43.0217 63.1184 43.117 62.5637 43.117Z" fill="white"/>
<defs>
<linearGradient id="paint0_linear_70_467" x1="129.405" y1="61.7539" x2="43.2929" y2="-43.056" gradientUnits="userSpaceOnUse">
<stop stop-color="#00F2FE"/>
<stop offset="1" stop-color="#4FACFE"/>
</linearGradient>
</defs>
</svg>
