<svg width="77" height="77" viewBox="0 0 77 77" fill="none" xmlns="http://www.w3.org/2000/svg">
<path fill-rule="evenodd" clip-rule="evenodd" d="M74.9952 19.0299C74.9952 19.0299 72.5188 7.19619 61.8186 3.03839C56.7077 1.03945 47.524 0.0799576 38.5 0C29.476 0.0799576 20.2923 1.03945 15.2613 2.95843C4.56025 7.11623 2.08465 18.95 2.08465 18.95C0.487486 25.6664 -0.0715216 32.4628 0.0083366 38.4596C-0.0715216 44.5364 0.407628 51.3328 2.08465 58.0492C2.08465 58.0492 4.56025 69.883 15.2613 74.0408C20.2923 75.9598 29.476 76.9192 38.5 77C47.524 76.9192 56.7077 76.0397 61.7379 74.0408C72.4397 69.883 74.9145 58.0492 74.9145 58.0492C76.5117 51.3328 77.0715 44.5364 76.9916 38.5396C77.0715 32.4628 76.5923 25.6664 74.9952 19.0299Z" fill="url(#paint0_linear_70_134)"/>
<path d="M21.134 33.432C22.3213 33.432 23.2313 33.7267 23.864 34.316C24.4967 34.8967 24.813 35.6767 24.813 36.656C24.813 37.046 24.7523 37.4403 24.631 37.839C24.5183 38.229 24.332 38.5843 24.072 38.905C23.8207 39.2257 23.4783 39.4857 23.045 39.685C22.6203 39.8757 22.096 39.971 21.472 39.971H20.12V43H18.235V33.432H21.134ZM21.459 38.138C21.8403 38.138 22.135 38.0557 22.343 37.891C22.5597 37.7177 22.7113 37.5183 22.798 37.293C22.8847 37.0677 22.928 36.8727 22.928 36.708C22.928 36.6127 22.9107 36.487 22.876 36.331C22.85 36.1663 22.7893 36.0017 22.694 35.837C22.5987 35.6723 22.4513 35.5337 22.252 35.421C22.0613 35.3083 21.8013 35.252 21.472 35.252H20.12V38.138H21.459ZM28.3141 43.156C27.7854 43.156 27.3044 43.052 26.8711 42.844C26.4464 42.6273 26.1084 42.298 25.8571 41.856C25.6057 41.414 25.4801 40.8507 25.4801 40.166C25.4801 39.5247 25.6101 38.97 25.8701 38.502C26.1301 38.034 26.4724 37.6743 26.8971 37.423C27.3217 37.163 27.7724 37.033 28.2491 37.033C28.8124 37.033 29.2371 37.124 29.5231 37.306C29.8177 37.488 30.0517 37.6873 30.2251 37.904L30.3421 37.319H32.0321V43H30.2121V42.298C30.1254 42.3847 29.9954 42.4973 29.8221 42.636C29.6574 42.7747 29.4494 42.896 29.1981 43C28.9467 43.104 28.6521 43.156 28.3141 43.156ZM28.8341 41.674C29.4667 41.674 29.9261 41.388 30.2121 40.816V39.425C30.1081 39.1477 29.9261 38.9267 29.6661 38.762C29.4147 38.5973 29.1157 38.515 28.7691 38.515C28.3791 38.515 28.0411 38.6623 27.7551 38.957C27.4691 39.243 27.3261 39.6157 27.3261 40.075C27.3261 40.3783 27.3954 40.6513 27.5341 40.894C27.6727 41.1367 27.8547 41.3273 28.0801 41.466C28.3141 41.6047 28.5654 41.674 28.8341 41.674ZM35.2669 37.319L35.4099 38.619C35.5745 38.2897 35.7999 38.008 36.0859 37.774C36.3719 37.5313 36.6535 37.3493 36.9309 37.228C37.2082 37.098 37.4205 37.033 37.5679 37.033L37.4769 38.853C37.0522 38.801 36.6882 38.8703 36.3849 39.061C36.0815 39.2517 35.8475 39.503 35.6829 39.815C35.5182 40.127 35.4359 40.4477 35.4359 40.777V43H33.6289V37.319H35.2669ZM41.2234 43.156C40.5301 43.156 39.9407 43.026 39.4554 42.766C38.9787 42.506 38.6147 42.1463 38.3634 41.687C38.1121 41.2277 37.9864 40.699 37.9864 40.101C37.9864 39.529 38.1337 39.0133 38.4284 38.554C38.7231 38.0947 39.1174 37.7307 39.6114 37.462C40.1054 37.1847 40.6557 37.046 41.2624 37.046C42.0771 37.046 42.7444 37.2843 43.2644 37.761C43.7931 38.229 44.1354 38.9093 44.2914 39.802L40.1314 41.128C40.4087 41.4487 40.7857 41.609 41.2624 41.609C41.4617 41.609 41.6524 41.5743 41.8344 41.505C42.0251 41.4357 42.2114 41.3447 42.3934 41.232L43.1994 42.584C42.8961 42.7573 42.5667 42.896 42.2114 43C41.8647 43.104 41.5354 43.156 41.2234 43.156ZM39.7804 39.997C39.7804 40.0403 39.7804 40.0793 39.7804 40.114L42.2764 39.269C42.1984 39.0523 42.0727 38.866 41.8994 38.71C41.7261 38.5453 41.4661 38.463 41.1194 38.463C40.7121 38.463 40.3871 38.6017 40.1444 38.879C39.9017 39.1563 39.7804 39.529 39.7804 39.997ZM46.9864 37.319L47.1164 38.229C47.3157 37.8737 47.5974 37.5877 47.9614 37.371C48.3254 37.1543 48.7674 37.046 49.2874 37.046C49.8247 37.046 50.2711 37.2063 50.6264 37.527C50.9904 37.839 51.1767 38.2463 51.1854 38.749V43H49.3654V39.425C49.3567 39.1737 49.2874 38.9743 49.1574 38.827C49.0361 38.671 48.8281 38.593 48.5334 38.593C48.1087 38.593 47.7707 38.7923 47.5194 39.191C47.2767 39.581 47.1554 40.0793 47.1554 40.686V43H45.3354V37.319H46.9864ZM53.3086 34.823H55.1286V37.293H56.5066V38.71H55.1286V43H53.3086V38.71H52.4246V37.293H53.3086V34.823ZM59.4592 43.117C58.9912 43.117 58.5535 43.0347 58.1462 42.87C57.7475 42.7053 57.4095 42.4757 57.1322 42.181L57.8862 41.18C58.1635 41.4313 58.4192 41.6133 58.6532 41.726C58.8959 41.83 59.1125 41.882 59.3032 41.882C59.5285 41.882 59.7149 41.8473 59.8622 41.778C60.0095 41.7087 60.0832 41.596 60.0832 41.44C60.0832 41.2927 60.0225 41.1757 59.9012 41.089C59.7885 41.0023 59.6412 40.933 59.4592 40.881C59.2772 40.8203 59.0822 40.7597 58.8742 40.699C58.3542 40.5343 57.9772 40.296 57.7432 39.984C57.5179 39.6633 57.4052 39.3167 57.4052 38.944C57.4052 38.658 57.4789 38.372 57.6262 38.086C57.7822 37.7913 58.0249 37.5487 58.3542 37.358C58.6922 37.1587 59.1255 37.059 59.6542 37.059C60.1309 37.059 60.5339 37.1067 60.8632 37.202C61.1925 37.2973 61.5045 37.4533 61.7992 37.67L61.1102 38.736C60.9455 38.606 60.7592 38.4977 60.5512 38.411C60.3519 38.3157 60.1655 38.2637 59.9922 38.255C59.7582 38.2463 59.5762 38.2897 59.4462 38.385C59.3162 38.4717 59.2512 38.5757 59.2512 38.697C59.2425 38.8617 59.3032 38.9917 59.4332 39.087C59.5719 39.1823 59.7452 39.256 59.9532 39.308C60.1612 39.36 60.3649 39.4207 60.5642 39.49C60.9715 39.6287 61.2965 39.828 61.5392 40.088C61.7819 40.3393 61.9032 40.6773 61.9032 41.102C61.9032 41.4487 61.8122 41.778 61.6302 42.09C61.4569 42.3933 61.1882 42.6403 60.8242 42.831C60.4689 43.0217 60.0139 43.117 59.4592 43.117Z" fill="white"/>
<defs>
<linearGradient id="paint0_linear_70_134" x1="91.1866" y1="63.0075" x2="63.2016" y2="-13.9925" gradientUnits="userSpaceOnUse">
<stop stop-color="#8DDAD5"/>
<stop offset="1" stop-color="#00CDAC"/>
</linearGradient>
</defs>
</svg>
