<svg width="23" height="23" viewBox="0 0 23 23" fill="none" xmlns="http://www.w3.org/2000/svg">
<path fill-rule="evenodd" clip-rule="evenodd" d="M19.4016 3.59835C17.9372 2.13388 15.5628 2.13388 14.0984 3.59835L9.59835 8.09835C8.13388 9.56282 8.13388 11.9372 9.59835 13.4017C9.90922 13.7125 10.2598 13.9565 10.633 14.1348C11.0068 14.3134 11.165 14.7611 10.9865 15.1349C10.8079 15.5086 10.3602 15.6669 9.98645 15.4883C9.46169 15.2376 8.97063 14.8953 8.53769 14.4623C6.48744 12.4121 6.48744 9.08794 8.53769 7.03769L13.0377 2.53769C15.0879 0.487437 18.4121 0.487437 20.4623 2.53769C22.5126 4.58794 22.5126 7.91206 20.4623 9.96231L18.7053 11.7193C18.4124 12.0122 17.9376 12.0122 17.6447 11.7193C17.3518 11.4264 17.3518 10.9515 17.6447 10.6586L19.4016 8.90165C20.8661 7.43718 20.8661 5.06282 19.4016 3.59835ZM12.0135 7.86513C12.1921 7.49138 12.6398 7.33313 13.0135 7.51167C13.5383 7.76236 14.0294 8.10475 14.4623 8.53769C16.5126 10.5879 16.5126 13.9121 14.4623 15.9623L9.96231 20.4623C7.91206 22.5126 4.58794 22.5126 2.53769 20.4623C0.487437 18.4121 0.487437 15.0879 2.53769 13.0377L4.29466 11.2807C4.58755 10.9878 5.06243 10.9878 5.35532 11.2807C5.64821 11.5736 5.64821 12.0485 5.35532 12.3414L3.59835 14.0984C2.13388 15.5628 2.13388 17.9372 3.59835 19.4016C5.06282 20.8661 7.43718 20.8661 8.90165 19.4016L13.4017 14.9016C14.8661 13.4372 14.8661 11.0628 13.4017 9.59835C13.0908 9.28748 12.7402 9.04347 12.367 8.86517C11.9932 8.68662 11.835 8.23889 12.0135 7.86513Z" fill="#4B5D68" stroke="#4B5D68" stroke-linecap="round"/>
</svg>
