<svg width="22" height="22" viewBox="0 0 22 22" fill="none" xmlns="http://www.w3.org/2000/svg">
<path fill-rule="evenodd" clip-rule="evenodd" d="M18.9016 3.09835C17.4372 1.63388 15.0628 1.63388 13.5984 3.09835L9.09835 7.59835C7.63388 9.06282 7.63388 11.4372 9.09835 12.9017C9.40922 13.2125 9.75977 13.4565 10.133 13.6348C10.5068 13.8134 10.665 14.2611 10.4865 14.6349C10.3079 15.0086 9.86021 15.1669 9.48645 14.9883C8.96169 14.7376 8.47063 14.3953 8.03769 13.9623C5.98744 11.9121 5.98744 8.58794 8.03769 6.53769L12.5377 2.03769C14.5879 -0.0125632 17.9121 -0.0125632 19.9623 2.03769C22.0126 4.08794 22.0126 7.41206 19.9623 9.46231L18.2053 11.2193C17.9124 11.5122 17.4376 11.5122 17.1447 11.2193C16.8518 10.9264 16.8518 10.4515 17.1447 10.1586L18.9016 8.40165C20.3661 6.93718 20.3661 4.56282 18.9016 3.09835ZM11.5135 7.36513C11.6921 6.99138 12.1398 6.83313 12.5135 7.01167C13.0383 7.26236 13.5294 7.60475 13.9623 8.03769C16.0126 10.0879 16.0126 13.4121 13.9623 15.4623L9.46231 19.9623C7.41206 22.0126 4.08794 22.0126 2.03769 19.9623C-0.0125632 17.9121 -0.0125632 14.5879 2.03769 12.5377L3.79466 10.7807C4.08755 10.4878 4.56243 10.4878 4.85532 10.7807C5.14821 11.0736 5.14821 11.5485 4.85532 11.8414L3.09835 13.5984C1.63388 15.0628 1.63388 17.4372 3.09835 18.9016C4.56282 20.3661 6.93718 20.3661 8.40165 18.9016L12.9017 14.4016C14.3661 12.9372 14.3661 10.5628 12.9017 9.09835C12.5908 8.78748 12.2402 8.54347 11.867 8.36517C11.4932 8.18662 11.335 7.73889 11.5135 7.36513Z" fill="url(#paint0_linear_70_496)" stroke="url(#paint1_linear_70_496)" stroke-linecap="round"/>
<defs>
<linearGradient id="paint0_linear_70_496" x1="25.3691" y1="17.6839" x2="17.7368" y2="-3.31614" gradientUnits="userSpaceOnUse">
<stop stop-color="#8DDAD5"/>
<stop offset="1" stop-color="#00CDAC"/>
</linearGradient>
<linearGradient id="paint1_linear_70_496" x1="25.3691" y1="17.6839" x2="17.7368" y2="-3.31614" gradientUnits="userSpaceOnUse">
<stop stop-color="#8DDAD5"/>
<stop offset="1" stop-color="#00CDAC"/>
</linearGradient>
</defs>
</svg>
